<?xml version="1.0" encoding="utf-8"?>
<!-- Generator: Adobe Illustrator 21.1.0, SVG Export Plug-In . SVG Version: 6.00 Build 0)  -->
<svg version="1.1" id="Livello_1" xmlns="http://www.w3.org/2000/svg" xmlns:xlink="http://www.w3.org/1999/xlink" x="0px" y="0px"
	 viewBox="0 0 841.9 595.3" style="enable-background:new 0 0 841.9 595.3;" xml:space="preserve">
<style type="text/css">
	.st0{fill:#65C8D0;}
	.st1{font-family:'MyriadPro-Regular';}
	.st2{font-size:72px;}
	.st3{fill:#838BC5;}
	.st4{font-size:74.9141px;}
	.st5{fill:none;stroke:#65C8D0;stroke-width:5;stroke-miterlimit:10;}
	.st6{fill:#838BC5;stroke:#838BC5;stroke-miterlimit:10;}
	.st7{fill:#65C8D0;stroke:#65C8D0;stroke-miterlimit:10;}
</style>
<text transform="matrix(1 0 0 1 245.168 214.8467)"><tspan x="0" y="0" class="st0 st1 st2">Q</tspan><tspan x="49.6" y="0" class="st3 st1 st2">uattro</tspan></text>
<text transform="matrix(1.1527 0 0 1 478.3271 214.8466)" class="st0 st1 st4">c</text>
<path class="st5" d="M486.3,190.1c0-23.8,9.8-43.1,21.9-43.1"/>
<path class="st5" d="M514.1,156.3c0-5-2.7-9.1-6-9.1"/>
<text transform="matrix(-1.1527 0 0 1 563.1445 214.8466)" class="st0 st1 st4">c</text>
<path class="st5" d="M555.1,190.1c0-23.8-9.8-43.1-21.9-43.1"/>
<path class="st5" d="M527.4,156.3c0-5,2.7-9.1,6-9.1"/>
<circle class="st6" cx="497.3" cy="190.1" r="3.5"/>
<circle class="st6" cx="529.4" cy="190.1" r="3.5"/>
<text transform="matrix(1 0 0 1 560.6674 214.8465)" class="st3 st1 st2">hi</text>
<circle class="st7" cx="623.2" cy="211.3" r="3.5"/>
<text transform="matrix(1 0 0 1 628.4004 214.8464)" class="st3 st1 st2">it</text>
</svg>
